<svg width="24" height="24" viewBox="0 0 32 32" fill="none" xmlns="http://www.w3.org/2000/svg">
<path fill-rule="evenodd" clip-rule="evenodd" d="M8.30276 8.30271C8.69329 7.91218 9.32645 7.91218 9.71698 8.30271L16.0001 14.5858L22.2831 8.30271C22.6737 7.91218 23.3068 7.91218 23.6973 8.30271C24.0879 8.69323 24.0879 9.3264 23.6973 9.71692L17.4143 16L23.6973 22.2831C24.0879 22.6736 24.0879 23.3068 23.6973 23.6973C23.3068 24.0878 22.6737 24.0878 22.2831 23.6973L16.0001 17.4142L9.71698 23.6973C9.32645 24.0878 8.69329 24.0878 8.30276 23.6973C7.91224 23.3068 7.91224 22.6736 8.30276 22.2831L14.5858 16L8.30276 9.71692C7.91224 9.3264 7.91224 8.69323 8.30276 8.30271Z" fill="currentColor"/>
</svg>
